<svg xmlns="http://www.w3.org/2000/svg" viewBox="0 0 919.1 312"><path fill="#fff" stroke="#bf7064" stroke-linecap="round" stroke-linejoin="round" stroke-width="5" d="M886.6 73.3H479.8L459.6 2.5l-20.3 70.8H32.5c-16.6 0-30 13.4-30 30v176.2c0 16.6 13.4 30 30 30h854.1c16.6 0 30-13.4 30-30V103.3c0-16.6-13.4-30-30-30"/><path fill="#754c24" d="M893.8 290.1c-7.6-7.1-15.2-14.2-22.9-21.3 1.3-1.3 2.6-2.5 3.9-3.8l22.6 22c.7 1 .6 2.3 0 3.1-.9 1-2.5 1-3.6 0"/><circle cx="860.7" cy="256.2" r="17.8" fill="#754c24"/><circle cx="860.7" cy="256.1" r="14.9" fill="#fff" transform="rotate(-81.4 860.705 256.18)"/><path fill="#bf7064" d="M851.8 254.6h17.9c.9 0 1.6.8 1.6 1.6 0 .9-.7 1.6-1.6 1.6h-17.9c-.9 0-1.6-.8-1.6-1.6 0-.9.7-1.6 1.6-1.6"/></svg>