<?xml version="1.0" encoding="UTF-8"?>
<svg id="_分離模式" data-name="分離模式" xmlns="http://www.w3.org/2000/svg" version="1.1" viewBox="0 0 107 68.3">
  <!-- Generator: Adobe Illustrator 30.0.0, SVG Export Plug-In . SVG Version: 2.1.1 Build 123)  -->
  <defs>
    <style>
      .st0 {
        fill: #fff;
      }

      .st0, .st1, .st2, .st3, .st4, .st5 {
        fill-rule: evenodd;
      }

      .st1 {
        fill: #595757;
      }

      .st2 {
        fill: #00a98e;
      }

      .st3 {
        fill: #009066;
      }

      .st4 {
        fill: #42b8a9;
      }

      .st5 {
        fill: #231815;
      }
    </style>
  </defs>
  <polygon class="st3" points="81.5 11.4 69.5 5.5 44.9 16.9 58.2 22.5 81.5 11.4"/>
  <polygon class="st2" points="93.5 26 81.5 11.4 58.2 22.5 61.6 42.1 93.5 26"/>
  <polygon class="st3" points="107 38.3 93.5 26 61.6 42.1 78.7 54.9 107 38.3"/>
  <polygon class="st2" points="106.9 50.7 107 38.3 78.7 54.9 78.4 67.1 106.9 50.7"/>
  <polygon class="st4" points="0 29.2 78.4 67.1 78.7 54.9 61.6 42.1 58.2 22.5 44.9 16.9 38.9 31.9 0 13.6 0 29.2"/>
  <polygon class="st1" points="72.5 64.3 66 67.4 65.8 61.1 72.5 64.3"/>
  <polygon class="st1" points="24.3 40.9 18.3 43.9 18.3 38.1 24.3 40.9"/>
  <path class="st5" d="M60.5,53.9c-3.8-1.7-6.9,0-6.9,3.8s3.1,8.3,6.9,9.9c3.8,1.7,6.9,0,6.9-3.8s-3.1-8.3-6.9-9.9Z"/>
  <path class="st5" d="M12.9,30.3c-3.8-1.7-6.9,0-6.9,3.8s3.1,8.3,6.9,9.9c3.8,1.7,6.9,0,6.9-3.8s-3.1-8.3-6.9-9.9Z"/>
  <path class="st0" d="M60.6,58.1c-1.5-.6-2.7,0-2.7,1.5s1.2,3.2,2.7,3.8c1.5.7,2.7,0,2.7-1.5s-1.2-3.2-2.7-3.8Z"/>
  <path class="st0" d="M13.1,34.4c-1.5-.6-2.7,0-2.7,1.5s1.2,3.2,2.7,3.8c1.5.7,2.7,0,2.7-1.5s-1.2-3.2-2.7-3.8Z"/>
  <g>
    <polygon class="st0" points="59.7 23.4 62.6 40.1 91.6 25.8 81.5 13.2 59.7 23.4"/>
    <polygon class="st0" points="41.4 33 60.1 41.6 57.2 23.8 46.6 19.3 41.4 33"/>
    <g>
      <path class="st0" d="M82.8,56.2c1.5-.6,2.7,0,2.7,1.5s-1.2,3.2-2.7,3.8c-1.5.7-2.7,0-2.7-1.5s1.2-3.2,2.7-3.8Z"/>
      <path class="st0" d="M103.4,44.1c1.5-.7,2.7,0,2.7,1.5s-1.2,3.2-2.7,3.8c-1.5.7-2.7,0-2.7-1.5s1.2-3.2,2.7-3.8Z"/>
    </g>
  </g>
  <polygon class="st2" points="54.8 12.3 28.5 0 0 13.6 38.9 31.9 44.9 16.9 54.8 12.3"/>
</svg>