<?xml version="1.0" encoding="UTF-8"?>
<svg id="POPUP" xmlns="http://www.w3.org/2000/svg" version="1.1" viewBox="0 0 919.1 312">
  <!-- Generator: Adobe Illustrator 30.0.0, SVG Export Plug-In . SVG Version: 2.1.1 Build 123)  -->
  <defs>
    <style>
      .st0 {
        stroke: #bf7064;
        stroke-linecap: round;
        stroke-linejoin: round;
        stroke-width: 5px;
      }

      .st0, .st1 {
        fill: #fff;
      }

      .st2 {
        fill: #754c24;
      }

      .st3 {
        fill: #bf7064;
      }
    </style>
  </defs>
  <path class="st0" d="M886.6,73.3h-406.8L459.6,2.5l-20.3,70.8H32.5c-16.6,0-30,13.4-30,30v176.2c0,16.6,13.4,30,30,30h854.1c16.6,0,30-13.4,30-30V103.3c0-16.6-13.4-30-30-30Z"/>
  <g>
    <path class="st2" d="M893.8,290.1c-7.6-7.1-15.2-14.2-22.9-21.3,1.3-1.3,2.6-2.5,3.9-3.8,7.5,7.3,15.1,14.7,22.6,22,.7,1,.6,2.3,0,3.1-.9,1-2.5,1-3.6,0h0Z"/>
    <circle class="st2" cx="860.7" cy="256.2" r="17.8"/>
    <circle class="st1" cx="860.7" cy="256.1" r="14.9" transform="translate(478.7 1068.9) rotate(-81.4)"/>
    <path class="st3" d="M851.8,254.6h17.9c.9,0,1.6.8,1.6,1.6h0c0,.9-.7,1.6-1.6,1.6h-17.9c-.9,0-1.6-.8-1.6-1.6h0c0-.9.7-1.6,1.6-1.6Z"/>
  </g>
</svg>