<?xml version="1.0" encoding="UTF-8"?>
<svg id="_分離模式" data-name="分離模式" xmlns="http://www.w3.org/2000/svg" version="1.1" viewBox="0 0 103.8 77.2">
  <!-- Generator: Adobe Illustrator 30.0.0, SVG Export Plug-In . SVG Version: 2.1.1 Build 123)  -->
  <defs>
    <style>
      .st0 {
        fill: #fff;
      }

      .st0, .st1, .st2, .st3, .st4, .st5 {
        fill-rule: evenodd;
      }

      .st1 {
        fill: #f2a59d;
      }

      .st2 {
        fill: #595757;
      }

      .st3 {
        fill: #231815;
      }

      .st4 {
        fill: #eb7063;
      }

      .st5 {
        fill: #e8493f;
      }
    </style>
  </defs>
  <g>
    <polygon class="st5" points="27.6 15.5 59.6 0 86.7 13.2 52.9 27.6 27.6 15.5"/>
    <polygon class="st4" points="14.6 31.4 27.6 15.5 52.9 27.6 49.2 48.8 14.6 31.4"/>
    <polygon class="st5" points="0 44.7 14.6 31.4 49.2 48.8 30.7 62.7 0 44.7"/>
    <polygon class="st4" points="0 58.1 0 44.7 30.7 62.7 31 75.9 0 58.1"/>
    <polygon class="st1" points="103.8 40.8 31 75.9 30.7 62.7 49.2 48.8 52.9 27.6 86.7 13.2 103.6 25.6 103.8 40.8"/>
    <polygon class="st0" points="51.2 28.5 48.1 46.6 16.6 31.2 27.6 17.5 51.2 28.5"/>
    <path class="st0" d="M99.3,25.8l-13.2-10.3-2.5,1.1,5.3,14.1,10.5-4.9h0ZM86.4,31.8l-12.9,6-5.5-14.7,13.1-5.5,5.3,14.2h0ZM65.5,24.1l-11.5,4.9-3.1,19.3,20.2-9.4-5.5-14.8Z"/>
  </g>
  <g>
    <g>
      <polygon class="st2" points="37.4 72.9 44.4 76.2 44.6 69.4 37.4 72.9"/>
      <polygon class="st2" points="78.8 52.9 85.2 56 85.6 49.6 78.8 52.9"/>
      <g>
        <path class="st3" d="M50.4,61.6c4.1-1.8,7.5,0,7.5,4.2,0,4.1-3.3,8.9-7.5,10.8-4.1,1.8-7.5,0-7.5-4.2,0-4.1,3.3-9,7.5-10.8Z"/>
        <path class="st3" d="M91.1,41.3c4.1-1.8,7.5,0,7.5,4.2,0,4.1-3.3,9-7.5,10.8-4.1,1.8-7.5,0-7.5-4.2s3.3-9,7.5-10.8Z"/>
      </g>
    </g>
    <path class="st0" d="M50.3,66.2c1.6-.7,2.9,0,2.9,1.6s-1.3,3.4-2.9,4.2c-1.6.7-2.9,0-2.9-1.6s1.3-3.4,2.9-4.2Z"/>
    <path class="st0" d="M90.9,45.7c1.6-.7,2.9,0,2.9,1.6s-1.3,3.4-2.9,4.2c-1.6.7-2.9,0-2.9-1.6s1.3-3.4,2.9-4.2Z"/>
  </g>
</svg>