<?xml version="1.0" encoding="UTF-8"?>
<svg id="_分離模式" data-name="分離模式" xmlns="http://www.w3.org/2000/svg" version="1.1" viewBox="0 0 90.4 64.5">
  <!-- Generator: Adobe Illustrator 30.0.0, SVG Export Plug-In . SVG Version: 2.1.1 Build 123)  -->
  <defs>
    <style>
      .st0 {
        fill: #009cc4;
      }

      .st0, .st1, .st2, .st3, .st4, .st5 {
        fill-rule: evenodd;
      }

      .st1 {
        fill: #fff;
      }

      .st2 {
        fill: #595757;
      }

      .st3 {
        fill: #50bfe0;
      }

      .st4 {
        fill: #00779d;
      }

      .st5 {
        fill: #231815;
      }
    </style>
  </defs>
  <g>
    <g>
      <polygon class="st4" points="23.1 12.9 49.7 0 72.4 11 44.2 23 23.1 12.9"/>
      <polygon class="st0" points="12.2 26.2 23.1 12.9 44.2 23 41 40.7 12.2 26.2"/>
      <polygon class="st4" points="0 37.3 12.2 26.2 41 40.7 25.6 52.3 0 37.3"/>
      <polygon class="st0" points="0 48.5 0 37.3 25.6 52.3 25.9 63.4 0 48.5"/>
      <polygon class="st3" points="90.3 32.3 25.9 63.4 25.6 52.3 41 40.7 44.2 23 72.4 11 83.1 21.9 90.4 19.7 90.3 32.3"/>
      <polygon class="st4" points="72.4 11 90.4 19.7 83.1 21.9 72.4 11"/>
      <polygon class="st1" points="42.8 23.8 40.1 38.9 13.9 26 23.1 14.6 42.8 23.8"/>
      <path class="st1" d="M81.2,22.3l-9.4-9.4-2.1.9,4.4,11.8,7.1-3.3h0ZM72.1,26.5l-10.8,5-4.6-12.3,10.9-4.6,4.5,11.9h0ZM54.7,20.1l-9.6,4.1-2.6,16.1,16.9-7.8-4.6-12.3Z"/>
    </g>
    <g>
      <g>
        <polygon class="st2" points="31.2 60.8 37.1 63.6 37.2 57.9 31.2 60.8"/>
        <polygon class="st2" points="65.7 44.1 71.2 46.7 71.4 41.4 65.7 44.1"/>
        <g>
          <path class="st5" d="M42.1,51.4c3.4-1.5,6.2,0,6.2,3.5,0,3.4-2.8,7.5-6.2,9-3.4,1.5-6.2,0-6.2-3.5,0-3.4,2.8-7.5,6.2-9Z"/>
          <path class="st5" d="M76.1,34.5c3.4-1.5,6.2,0,6.2,3.5,0,3.4-2.8,7.5-6.2,9-3.4,1.5-6.2,0-6.2-3.5,0-3.4,2.8-7.5,6.2-9Z"/>
        </g>
      </g>
      <path class="st1" d="M42,55.2c1.3-.6,2.4,0,2.4,1.3s-1.1,2.9-2.4,3.5c-1.3.6-2.4,0-2.4-1.3s1.1-2.9,2.4-3.5Z"/>
      <path class="st1" d="M75.9,38.2c1.3-.6,2.4,0,2.4,1.3s-1.1,2.9-2.4,3.5c-1.3.6-2.4,0-2.4-1.3s1.1-2.9,2.4-3.5Z"/>
    </g>
  </g>
  <g>
    <path class="st1" d="M21.9,53.5c-1.3-.6-2.4,0-2.4,1.3s1.1,2.9,2.4,3.5c1.3.6,2.4,0,2.4-1.3s-1.1-2.9-2.4-3.5Z"/>
    <path class="st1" d="M3.3,42.5c-1.3-.6-2.4,0-2.4,1.3,0,1.3,1.1,2.9,2.4,3.5,1.3.6,2.4,0,2.4-1.3s-1.1-2.9-2.4-3.5Z"/>
  </g>
</svg>